<svg class="lds-gear" width="200px"  height="200px"  xmlns="http://www.w3.org/2000/svg" xmlns:xlink="http://www.w3.org/1999/xlink" viewBox="0 0 100 100" preserveAspectRatio="xMidYMid" style="background: rgba(0, 0, 0, 0) none repeat scroll 0% 0%;"><g transform="translate(50 50)">
<g>
<animateTransform attributeName="transform" type="rotate" values="0;360" keyTimes="0;1" dur="2.5s" repeatCount="indefinite"></animateTransform><path d="M37.43995192304605 -6.5 L47.43995192304605 -6.5 L47.43995192304605 6.5 L37.43995192304605 6.5 A38 38 0 0 1 32.858786584253636 19.086648323120365 L32.858786584253636 19.086648323120365 L40.51923101544342 25.514524419985758 L32.162992089518404 35.47310218053248 L24.50254765832862 29.045226083667085 A38 38 0 0 1 12.902629817953784 35.74244177138504 L12.902629817953784 35.74244177138504 L14.639111594623088 45.590519301507115 L1.8366108054643882 47.84794561117721 L0.10012902879508426 37.99986808105513 A38 38 0 0 1 -13.09081083692417 35.67394948182593 L-13.09081083692417 35.67394948182593 L-18.09081083692417 44.33420351967032 L-29.34914108612187 37.834203519670325 L-24.349141086121872 29.173949481825936 A38 38 0 0 1 -32.95891561304871 18.91321975793477 L-32.95891561304871 18.91321975793477 L-42.35584182090779 22.33342119119146 L-46.802103684141485 10.11741712097465 L-37.405177476282404 6.697215687717961 A38 38 0 0 1 -37.405177476282404 -6.697215687717953 L-37.405177476282404 -6.697215687717953 L-46.802103684141485 -10.11741712097464 L-42.3558418209078 -22.333421191191444 L-32.95891561304872 -18.91321975793476 A38 38 0 0 1 -24.349141086121893 -29.17394948182592 L-24.349141086121893 -29.17394948182592 L-29.349141086121897 -37.834203519670304 L-18.0908108369242 -44.334203519670304 L-13.090810836924195 -35.67394948182592 A38 38 0 0 1 0.10012902879506654 -37.99986808105513 L0.10012902879506654 -37.99986808105513 L1.8366108054643664 -47.84794561117722 L14.63911159462307 -45.59051930150712 L12.90262981795377 -35.74244177138504 A38 38 0 0 1 24.502547658328616 -29.04522608366709 L24.502547658328616 -29.04522608366709 L32.1629920895184 -35.473102180532486 L40.5192310154434 -25.51452441998578 L32.85878658425362 -19.086648323120382 A38 38 0 0 1 37.43995192304605 -6.500000000000007 M0 -20A20 20 0 1 0 0 20 A20 20 0 1 0 0 -20" fill="#5bd4e1"></path></g></g></svg>